<?xml version="1.0" standalone="no"?>
<!DOCTYPE svg PUBLIC "-//W3C//DTD SVG 20010904//EN"
 "http://www.w3.org/TR/2001/REC-SVG-20010904/DTD/svg10.dtd">
<svg version="1.0" xmlns="http://www.w3.org/2000/svg"
 width="880.000000pt" height="270.000000pt" viewBox="0 0 880.000000 270.000000"
 preserveAspectRatio="xMidYMid meet">
<metadata>
Created by potrace 1.16, written by Peter Selinger 2001-2019
</metadata>
<g transform="translate(0.000000,270.000000) scale(0.100000,-0.100000)"
fill="#000000" stroke="none">
<path d="M5635 2443 c-11 -3 -32 -17 -47 -31 -41 -38 -40 -100 2 -135 82 -70
230 -28 230 65 0 78 -86 125 -185 101z"/>
<path d="M6506 2425 c-3 -9 -6 -86 -6 -170 l0 -154 -42 19 c-73 32 -156 43
-223 31 -128 -24 -205 -84 -255 -201 -21 -47 -24 -71 -24 -160 1 -90 5 -112
25 -155 40 -83 76 -123 143 -155 109 -54 250 -50 353 10 l33 19 16 -25 c16
-24 20 -25 108 -22 l91 3 0 485 0 485 -106 3 c-91 2 -108 0 -113 -13z m-29
-437 l28 -13 3 -120 c1 -66 -1 -147 -5 -180 l-8 -59 -45 -14 c-63 -18 -163
-11 -197 14 -49 37 -68 89 -68 184 1 71 5 92 25 129 36 65 78 84 167 78 40 -3
85 -11 100 -19z"/>
<path d="M8016 2149 c-61 -9 -165 -53 -201 -86 -95 -85 -132 -257 -85 -398 16
-49 35 -78 73 -119 70 -72 136 -97 277 -104 200 -9 316 46 388 183 22 43 27
66 30 157 4 103 3 110 -26 172 -55 117 -139 174 -290 196 -76 11 -84 11 -166
-1z m182 -169 c49 -30 72 -88 72 -185 0 -140 -56 -210 -166 -209 -102 2 -153
59 -162 184 -7 97 17 172 66 205 48 33 140 35 190 5z"/>
<path d="M7181 2139 c-114 -20 -201 -83 -254 -184 -30 -57 -32 -66 -32 -170 0
-106 2 -112 35 -175 43 -80 97 -122 191 -151 61 -19 87 -21 202 -16 83 3 152
11 185 21 l52 17 0 59 c0 36 -5 60 -12 62 -6 2 -43 -2 -82 -10 -96 -18 -243
-11 -287 14 -40 24 -67 60 -75 101 l-6 32 103 -6 c249 -14 400 59 399 193 0
49 -31 117 -67 149 -65 58 -225 87 -352 64z m142 -130 c48 -13 71 -48 63 -93
-10 -51 -65 -70 -185 -64 -50 2 -93 6 -95 9 -11 10 17 89 39 109 25 23 87 49
120 50 11 0 37 -5 58 -11z"/>
<path d="M4670 2116 c0 -12 70 -172 151 -344 16 -34 29 -64 29 -66 0 -3 18
-43 40 -90 22 -47 40 -89 40 -94 0 -5 9 -21 21 -36 20 -25 24 -26 124 -26 70
0 106 4 112 13 5 6 36 71 68 142 31 72 70 157 85 190 75 161 130 290 130 307
0 17 -9 18 -112 16 l-112 -3 -31 -90 c-17 -49 -39 -112 -49 -140 -10 -27 -26
-72 -36 -100 -10 -27 -25 -71 -35 -97 -18 -53 -30 -60 -38 -25 -3 12 -28 87
-57 167 -28 80 -58 168 -66 195 -30 95 -29 95 -154 95 -86 0 -110 -3 -110 -14z"/>
<path d="M5575 2118 c-3 -7 -4 -157 -3 -333 l3 -320 110 0 110 0 0 330 0 330
-108 3 c-81 2 -109 -1 -112 -10z"/>
</g>
</svg>
