<svg width="100" height="100" fill="none" xmlns="http://www.w3.org/2000/svg"><path d="M50 100c27.614 0 50-22.386 50-50S77.614 0 50 0 0 22.386 0 50s22.386 50 50 50Z" fill="url(#a)"/><path d="M86.718 83.939C77.583 93.816 64.514 100 50 100c-14.73 0-27.974-6.37-37.124-16.506 1.212-3.09 2.922-5.902 5.304-8.228C25.46 68.157 38.425 65.235 50 65.235c11.554 0 23.655 2.906 30.933 9.993 2.512 2.446 4.405 5.43 5.785 8.71Z" fill="url(#b)"/><path d="M69.52 37.11c.794-12.213-5.89-22.266-19.468-22.266-13.579 0-20.263 10.053-19.468 22.265.795 12.213 8.794 20.703 19.468 20.703 10.673 0 18.673-8.49 19.468-20.703Z" fill="url(#c)"/><defs><linearGradient id="a" x1="0" y1="0" x2="100" y2="100" gradientUnits="userSpaceOnUse"><stop stop-color="#4C718E"/><stop offset="1" stop-color="#2B4053"/></linearGradient><linearGradient id="b" x1="41.554" y1="30.347" x2="82.712" y2="71.539" gradientUnits="userSpaceOnUse"><stop stop-color="#fff" stop-opacity=".85"/><stop offset="1" stop-color="#fff" stop-opacity="0"/></linearGradient><linearGradient id="c" x1="41.554" y1="30.347" x2="82.712" y2="71.539" gradientUnits="userSpaceOnUse"><stop stop-color="#fff" stop-opacity=".85"/><stop offset="1" stop-color="#fff" stop-opacity="0"/></linearGradient></defs></svg>