<svg xmlns="http://www.w3.org/2000/svg" height="35" viewBox="0 -960 960 960" width="35"><path d="M719.967-62.477q-57.315 0-97.402-40.111-40.088-40.111-40.088-97.412 0-7.54 1-15.618t3-15.208L332.174-378.999q-18.695 17.261-42.435 26.891Q266-342.477 240-342.477q-57.301 0-97.412-40.121-40.111-40.12-40.111-97.435 0-57.315 40.111-97.402 40.111-40.088 97.412-40.088 26 0 49.739 9.631 23.74 9.63 42.435 26.891l254.303-148.173q-2-7.13-3-15.208t-1-15.618q0-57.301 40.121-97.412 40.12-40.111 97.435-40.111 57.315 0 97.402 40.121 40.088 40.12 40.088 97.435 0 57.315-40.111 97.402-40.111 40.088-97.412 40.088-26 0-49.739-9.066-23.74-9.065-42.435-26.326L373.523-510.826q2 7.13 3 15.208t1 15.618q0 7.54-1 15.618t-3 15.208l254.303 147.043q18.695-17.261 42.435-26.326Q694-337.523 720-337.523q57.301 0 97.412 40.121 40.111 40.12 40.111 97.435 0 57.315-40.121 97.402-40.12 40.088-97.435 40.088ZM720-720q17 0 28.5-11.5T760-760q0-17-11.5-28.5T720-800q-17 0-28.5 11.5T680-760q0 17 11.5 28.5T720-720ZM240-440q17 0 28.5-11.5T280-480q0-17-11.5-28.5T240-520q-17 0-28.5 11.5T200-480q0 17 11.5 28.5T240-440Zm480 280q17 0 28.5-11.5T760-200q0-17-11.5-28.5T720-240q-17 0-28.5 11.5T680-200q0 17 11.5 28.5T720-160Zm0-600ZM240-480Zm480 280Z"/></svg>